<svg version="1.1" id="ios7_x5F_arrows_1_" xmlns="http://www.w3.org/2000/svg" x="0" y="0" viewBox="0 0 128 128" style="enable-background:new 0 0 128 128" xml:space="preserve"><style>.st0{display:none}.st1{display:inline}</style><g id="_x32__1_"><path d="m64 37-3.8-3.8L29.5 64l30.7 30.8L64 91 39.8 66.7H104v-5.3H39.8L64 37zm.1-37C28.8 0 .2 28.7.2 64s28.6 64 63.9 64S128 99.3 128 64c-.1-35.3-28.7-64-63.9-64zm0 122.7C31.7 122.7 5.5 96.4 5.5 64c0-32.4 26.2-58.7 58.6-58.7s58.6 26.3 58.6 58.7c-.1 32.4-26.3 58.7-58.6 58.7z" id="icon_37_"/></g></svg>